<svg width="25" height="25" viewBox="0 0 25 25" fill="none" xmlns="http://www.w3.org/2000/svg">
<path d="M6.83438 0.0603495C5.54288 0.0586818 4.27741 0.438031 3.18497 1.15434C2.09253 1.87065 1.21795 2.89451 0.662793 4.10703C0.107639 5.31954 -0.105299 6.67094 0.0487093 8.00427C0.202718 9.33759 0.717353 10.5981 1.53284 11.6395L12.4799 25L23.3191 11.7727L23.373 11.7096L23.427 11.6395C24.019 10.8971 24.4594 10.0372 24.7215 9.1122C24.9836 8.18715 25.0618 7.2163 24.9514 6.25881C24.841 5.30132 24.5443 4.37721 24.0793 3.54281C23.6144 2.7084 22.9909 1.98115 22.2469 1.40536C21.5029 0.829576 20.654 0.417309 19.7518 0.193675C18.8497 -0.0299593 17.9132 -0.0602779 16.9994 0.104566C16.0856 0.26941 15.2136 0.625966 14.4367 1.15251C13.6597 1.67906 12.9939 2.36457 12.4799 3.16729C11.8554 2.21006 11.015 1.42641 10.032 0.884817C9.0491 0.343221 7.95355 0.0601543 6.84113 0.0603495H6.83438Z" fill="#676767"/>
</svg>
